# xmcd
# Copyright (C) 1995-1998 Ti Kan
#
# Track frame offsets:
#       150
#       18894
#       37696
#       54341
#       69979
#       88884
#       108089
#       128030
#       142060
#       162555
#
# Disc length: 2438 seconds
#
# Revision: 0
# Processed by: cddbd v1.5.2PL0 Copyright (c) Steve Scherf et al.
# Submitted via: CD-Import v1.0
#
DISCID=7b09840a
DTITLE=Legendary Lightness, The - Ancient Greek Breakfast Club
DYEAR=11
DGENRE=
TTITLE0=We Are Here
TTITLE1=It Takes Everything You Have
TTITLE2=Up To You
TTITLE3=Magazine Reader
TTITLE4=Airplane
TTITLE5=Friendly Smiles
TTITLE6=My Wooden Turtle
TTITLE7=Blue Light Turns To Grey
TTITLE8=Sweet Routine
TTITLE9=You Are Free
EXTD=
EXTT0=
EXTT1=
EXTT2=
EXTT3=
EXTT4=
EXTT5=
EXTT6=
EXTT7=
EXTT8=
EXTT9=
PLAYORDER=
